<svg xmlns="http://www.w3.org/2000/svg" xmlns:xlink="http://www.w3.org/1999/xlink" version="1.1" viewBox="0 0 403 280">
  <defs>
    <path d="M28.274 0H387c8.837 0 16 7.163 16 16v204.687c0 8.15-6.125 14.997-14.224 15.901L18.628 277.92c-8.782.98-16.696-5.344-17.677-14.126a16 16 0 01-.082-2.517l11.423-246.02C12.688 6.72 19.726 0 28.274 0z" id="dHqsXtEI8a"/>
  </defs>
  <g stroke="none" stroke-width="1" fill="none" fill-rule="evenodd">
    <mask id="dHqsXtEI8b" fill="#fff">
      <use xlink:href="#dHqsXtEI8a"/>
    </mask>
    <use fill="#3FAB7B" xlink:href="#dHqsXtEI8a"/>
    <use fill="#59877A" xlink:href="#dHqsXtEI8a"/>
    <g opacity=".144" mask="url(#dHqsXtEI8b)" fill="#FFF" fill-rule="nonzero">
      <path d="M149.067 377.421c86.82-1.015 102.288 48.22 102.288 48.22 0-6.26.832-12.351 1.497-18.273-13.14-92.209-66.529-120.125-66.529-120.125 35.816 3.007 65.841 28.732 74.845 64.123a34.416 34.416 0 000-9.306V230.902a5.432 5.432 0 01-2.328 4.06s-49.897-48.726-48.899-107.435C210.94 68.817 262 22.29 262 22.29h-.832V-53C91.852-53-60 107.224-60 305.008-60 493.994 71.894 647.958 239.38 662c4.824-85.61 5.655-169.19 5.655-169.19-15.634-60.402-95.968-115.389-95.968-115.389zm-10.644-200.66c30.77 28.424 30.77 84.595 30.77 84.595S119.294 271 88.36 242.576c-30.936-28.424-30.77-84.595-30.77-84.595s50.063-9.813 80.833 18.78zm-69.69 209.797c-28.108-10.152-42.08-48.22-42.08-48.22s31.768-21.825 59.877-11.674c28.108 10.151 42.08 48.896 42.08 48.896s-31.768 21.149-59.877 10.998zM335.21 129.51c-.82 48.331-49.21 88.382-49.21 101.395v110.35c14.64-55.05 47.038-103.327 91.86-136.882-70.864 153.782-60.201 222.392-60.201 222.392 44.453-62.358 143.858-56.781 143.858-56.781s-113.676 43.769-135.82 132.15c0 0 1.968 79.257 7.873 156.824A319.062 319.062 0 01302.403 662C473.983 655.071 608 497.91 608 304.584 608 107.034 476.772-53 286.984-53v75.877c-.328 6.253 49.21 52.049 48.226 106.633zm206.684 104.436s-12.303 57.626-49.21 78.75c-36.908 21.124-86.61-2.535-86.61-2.535s12.302-57.795 50.03-78.75c37.728-20.954 85.79 2.535 85.79 2.535zm-144.35-119.645c11.944-20.943 31.475-36.14 54.295-42.248 8.852 23.633 9.317 49.728 1.312 73.68-11.944 20.943-31.475 36.14-54.295 42.248-8.852-23.633-9.317-49.728-1.312-73.68z"/>
    </g>
  </g>
</svg>
