<svg xmlns="http://www.w3.org/2000/svg" xmlns:xlink="http://www.w3.org/1999/xlink" version="1.1" viewBox="0 0 1024 788">
  <defs>
    <path id="CObWs5E4qa" d="M35.677 0H1106v530.429L0 632z"/>
  </defs>
  <g stroke="none" stroke-width="1" fill="none" fill-rule="evenodd">
    <g transform="translate(-66)">
      <use fill="#3FAB7B" xlink:href="#CObWs5E4qa"/>
      <use fill="#59877A" xlink:href="#CObWs5E4qa"/>
    </g>
    <path d="M209.067 447.421c86.82-1.015 102.288 48.22 102.288 48.22 0-6.26.832-12.351 1.497-18.273-13.14-92.209-66.529-120.125-66.529-120.125 35.816 3.007 65.841 28.732 74.845 64.123a34.416 34.416 0 000-9.306V300.902a5.432 5.432 0 01-2.328 4.06s-49.897-48.726-48.899-107.435C270.94 138.817 322 92.29 322 92.29h-.832V17C151.852 17 0 177.224 0 375.008 0 563.994 131.894 717.958 299.38 732c4.824-85.61 5.655-169.19 5.655-169.19-15.634-60.402-95.968-115.389-95.968-115.389zm-10.644-200.66c30.77 28.424 30.77 84.595 30.77 84.595s-49.898 9.644-80.833-18.78c-30.936-28.424-30.77-84.595-30.77-84.595s50.063-9.813 80.833 18.78zm-69.69 209.797c-28.108-10.152-42.08-48.22-42.08-48.22s31.768-21.825 59.877-11.674c28.108 10.151 42.08 48.896 42.08 48.896s-31.768 21.149-59.877 10.998zM395.21 199.51c-.82 48.331-49.21 88.382-49.21 101.395v110.35c14.64-55.05 47.038-103.327 91.86-136.882-70.864 153.782-60.201 222.392-60.201 222.392 44.453-62.358 143.858-56.781 143.858-56.781s-113.676 43.769-135.82 132.15c0 0 1.968 79.257 7.873 156.824A319.062 319.062 0 01362.403 732C533.983 725.071 668 567.91 668 374.584 668 177.034 536.772 17 346.984 17v75.877c-.328 6.253 49.21 52.049 48.226 106.633zm206.684 104.436s-12.303 57.626-49.21 78.75c-36.908 21.124-86.61-2.535-86.61-2.535s12.302-57.795 50.03-78.75c37.728-20.954 85.79 2.535 85.79 2.535zm-144.35-119.645c11.944-20.943 31.475-36.14 54.295-42.248 8.852 23.633 9.317 49.728 1.312 73.68-11.944 20.943-31.475 36.14-54.295 42.248-8.852-23.633-9.317-49.728-1.312-73.68z" opacity=".144" fill="#FFF" fill-rule="nonzero"/>
  </g>
</svg>
