<svg xmlns="http://www.w3.org/2000/svg" xmlns:xlink="http://www.w3.org/1999/xlink" version="1.1" viewBox="0 0 1249 660">
  <defs>
    <path id="XSc4xBY58a" d="M0 0h1249v660H0z"/>
  </defs>
  <g stroke="none" stroke-width="1" fill="none" fill-rule="evenodd">
    <mask id="XSc4xBY58b" fill="#fff">
      <use xlink:href="#XSc4xBY58a"/>
    </mask>
    <use fill="#A2D181" xlink:href="#XSc4xBY58a"/>
    <g fill="#FFF" fill-rule="nonzero" mask="url(#XSc4xBY58b)" opacity=".144">
      <path d="M310.784 539.913c129.06-1.51 152.054 71.688 152.054 71.688 0-9.307 1.236-18.362 2.225-27.166-19.532-137.088-98.897-178.592-98.897-178.592 53.24 4.472 97.875 42.717 111.26 95.333.626-4.59.626-9.245 0-13.835v-165.26a8.077 8.077 0 01-3.462 6.037s-74.173-72.443-72.69-159.727c1.484-87.284 77.388-156.457 77.388-156.457h-1.237V-100C225.732-100 0 138.207 0 432.255 0 713.223 196.063 942.122 445.037 963c7.17-127.278 8.406-251.538 8.406-251.538-23.24-89.8-142.659-171.55-142.659-171.55zM294.96 241.589c45.74 42.258 45.74 125.769 45.74 125.769s-74.172 14.337-120.16-27.92c-45.987-42.26-45.74-125.77-45.74-125.77s74.42-14.59 120.16 27.92zM191.366 553.496c-41.784-15.092-62.553-71.688-62.553-71.688s47.224-32.449 89.008-17.357c41.784 15.093 62.552 72.695 62.552 72.695s-47.223 31.442-89.007 16.35zM587.49 171.34c-1.218 71.855-73.152 131.4-73.152 150.745v164.06c21.764-81.846 69.923-153.618 136.552-203.505-105.34 228.629-89.49 330.633-89.49 330.633 66.081-92.708 213.85-84.417 213.85-84.417s-168.983 65.071-201.902 196.47c0 0 2.926 117.832 11.704 233.152a474.236 474.236 0 01-46.33 4.522C793.783 952.7 993 719.045 993 431.626 993 137.926 797.926-100 515.801-100V12.807c-.487 9.296 73.153 77.382 71.69 158.533zm307.242 155.267s-18.288 85.673-73.153 117.078c-54.864 31.405-128.748-3.768-128.748-3.768s18.288-85.925 74.371-117.079c56.084-31.154 127.53 3.769 127.53 3.769zM680.15 148.728c17.756-31.135 46.789-53.728 80.711-62.81 13.16 35.136 13.85 73.932 1.951 109.541-17.756 31.136-46.789 53.729-80.711 62.81-13.16-35.135-13.85-73.931-1.951-109.54z"/>
    </g>
  </g>
</svg>
